<svg width="100" height="100" viewBox="0 0 100 100" fill="none" xmlns="http://www.w3.org/2000/svg">
<g clip-path="url(#clip0)">
<path d="M13.8817 32.3916C12.1587 32.3916 10.6968 32.9925 9.49512 34.1942C8.29342 35.3959 7.69238 36.8379 7.69238 38.5209V64.3621C7.69238 66.0872 8.29324 67.5479 9.49512 68.7498C10.6968 69.9515 12.1587 70.5525 13.8817 70.5525C15.6035 70.5525 17.0565 69.9516 18.2396 68.7498C19.4203 67.5481 20.0123 66.0872 20.0123 64.3621V38.5209C20.0123 36.8377 19.4114 35.3959 18.2096 34.1942C17.0077 32.9925 15.5648 32.3916 13.8817 32.3916Z" fill="#A4C639"/>
<path d="M63.6417 9.19392L67.9086 1.32263C68.1887 0.801518 68.089 0.401914 67.6088 0.120926C67.0875 -0.121368 66.687 0.00140638 66.4071 0.480569L62.0805 8.41478C58.2734 6.73156 54.2468 5.88842 50.0007 5.88842C45.7537 5.88842 41.7268 6.73174 37.9211 8.41478L33.5944 0.480569C33.3132 0.00140638 32.9127 -0.120283 32.3927 0.120926C31.9114 0.40318 31.8117 0.801518 32.0929 1.32263L36.36 9.19392C32.0332 11.4004 28.5872 14.4734 26.0233 18.4195C23.4593 22.3678 22.1768 26.6825 22.1768 31.371H77.7643C77.7643 26.6835 76.4816 22.3687 73.9178 18.4195C71.3537 14.4734 67.9276 11.4004 63.6417 9.19392ZM38.9724 20.6428C38.511 21.1054 37.9598 21.3355 37.3192 21.3355C36.6773 21.3355 36.1374 21.1054 35.6969 20.6428C35.2565 20.1825 35.0362 19.6335 35.0362 18.9907C35.0362 18.3501 35.2565 17.8 35.6969 17.3386C36.1374 16.8782 36.6786 16.6481 37.3192 16.6481C37.9598 16.6481 38.511 16.8782 38.9724 17.3386C39.4328 17.8011 39.664 18.3501 39.664 18.9907C39.6628 19.6324 39.4317 20.1825 38.9724 20.6428ZM64.3022 20.6428C63.8608 21.1054 63.3197 21.3355 62.6801 21.3355C62.038 21.3355 61.4871 21.1054 61.0265 20.6428C60.5653 20.1825 60.3351 19.6335 60.3351 18.9907C60.3351 18.3501 60.5653 17.8 61.0265 17.3386C61.4871 16.8782 62.038 16.6481 62.6801 16.6481C63.3207 16.6481 63.8607 16.8782 64.3022 17.3386C64.743 17.8011 64.9629 18.3501 64.9629 18.9907C64.9629 19.6324 64.7429 20.1825 64.3022 20.6428Z" fill="#A4C639"/>
<path d="M22.416 73.5566C22.416 75.4013 23.0566 76.9628 24.3381 78.2443C25.6206 79.5257 27.1821 80.1663 29.0256 80.1663H33.4729L33.5339 93.8096C33.5339 95.5325 34.1347 96.9954 35.3364 98.1973C36.5381 99.3992 37.9812 100 39.6632 100C41.3851 100 42.8479 99.3992 44.0498 98.1973C45.2516 96.9954 45.8525 95.5326 45.8525 93.8096V80.1676H54.1454V93.8096C54.1454 95.5325 54.7461 96.9954 55.948 98.1973C57.1499 99.3992 58.6114 100 60.3346 100C62.0565 100 63.5193 99.3992 64.7212 98.1973C65.9231 96.9954 66.5238 95.5326 66.5238 93.8096V80.1676H71.0311C72.8337 80.1676 74.3752 79.5268 75.6589 78.2453C76.9402 76.9639 77.5812 75.4024 77.5812 73.5579V33.5322H22.416V73.5566Z" fill="#A4C639"/>
<path d="M86.1178 32.3916C84.4345 32.3916 82.9927 32.9836 81.7908 34.1643C80.5891 35.3472 79.9883 36.8003 79.9883 38.5209V64.3621C79.9883 66.0872 80.589 67.5479 81.7908 68.7498C82.9927 69.9516 84.4356 70.5525 86.1178 70.5525C87.8397 70.5525 89.3025 69.9516 90.5044 68.7498C91.7063 67.5479 92.3069 66.0872 92.3069 64.3621V38.5209C92.3069 36.8001 91.7063 35.3472 90.5044 34.1643C89.3025 32.9836 87.8397 32.3916 86.1178 32.3916Z" fill="#A4C639"/>
</g>
<defs>
<clipPath id="clip0">
<rect width="100" height="100" fill="white"/>
</clipPath>
</defs>
</svg>
