<svg width="50" height="50" viewBox="0 0 50 50" fill="none" xmlns="http://www.w3.org/2000/svg">
<g clip-path="url(#clip0)">
<path d="M48.31 9.84823L33.1603 24.9995L48.31 40.1501C50.5634 42.4044 50.5634 46.0561 48.31 48.3104C47.1841 49.4364 45.7079 49.9998 44.2324 49.9998C42.7545 49.9998 41.2782 49.4372 40.1531 48.3104L25.0001 33.1581L9.84823 48.3103C8.72244 49.4362 7.24612 49.9996 5.76937 49.9996C4.29305 49.9996 2.81774 49.4371 1.69095 48.3103C-0.562501 46.057 -0.562501 42.4052 1.69095 40.15L16.8402 24.9994L1.69009 9.84823C-0.563362 7.59478 -0.563362 3.94224 1.69009 1.68879C3.9431 -0.562931 7.59349 -0.562931 9.84737 1.68879L25 16.8401L40.1514 1.68879C42.4057 -0.562931 46.0565 -0.562931 48.3091 1.68879C50.5634 3.94224 50.5634 7.59478 48.31 9.84823Z" fill="white"/>
</g>
<defs>
<clipPath id="clip0">
<rect width="50" height="50.0001" fill="white"/>
</clipPath>
</defs>
</svg>
